<mxfile host="app.diagrams.net" modified="2024-05-10T13:55:35.784Z" agent="Mozilla/5.0 (Windows NT 10.0; Win64; x64) AppleWebKit/537.36 (KHTML, like Gecko) Chrome/124.0.0.0 Safari/537.36" version="24.2.0" etag="P10zkrYlB0Uq4NsgnRd3" type="github">
  <diagram name="Trang-1" id="hUar9mYDvGbKleU7xtaG">
    <mxGraphModel>
      <root>
        <mxCell id="0" />
        <mxCell id="1" parent="0" />
      </root>
    </mxGraphModel>
  </diagram>
</mxfile>
